<svg xmlns="http://www.w3.org/2000/svg" viewBox="0 0 1200 800" style="background: linear-gradient(135deg, #87ceeb 0%, #98fb98 30%, #90ee90 100%);">
  <!-- Sun -->
  <circle cx="1000" cy="120" r="80" fill="#ffd700" opacity="0.8"/>
  <g transform="translate(1000, 120)">
    <line x1="-120" y1="0" x2="-100" y2="0" stroke="#ffd700" stroke-width="4"/>
    <line x1="100" y1="0" x2="120" y2="0" stroke="#ffd700" stroke-width="4"/>
    <line x1="0" y1="-120" x2="0" y2="-100" stroke="#ffd700" stroke-width="4"/>
    <line x1="0" y1="100" x2="0" y2="120" stroke="#ffd700" stroke-width="4"/>
    <line x1="-85" y1="-85" x2="-71" y2="-71" stroke="#ffd700" stroke-width="4"/>
    <line x1="71" y1="71" x2="85" y2="85" stroke="#ffd700" stroke-width="4"/>
    <line x1="85" y1="-85" x2="71" y2="-71" stroke="#ffd700" stroke-width="4"/>
    <line x1="-71" y1="71" x2="-85" y2="85" stroke="#ffd700" stroke-width="4"/>
  </g>
  
  <!-- Clouds -->
  <g opacity="0.6">
    <ellipse cx="200" cy="100" rx="40" ry="25" fill="white"/>
    <ellipse cx="230" cy="95" rx="35" ry="20" fill="white"/>
    <ellipse cx="180" cy="95" rx="30" ry="18" fill="white"/>
    
    <ellipse cx="800" cy="80" rx="35" ry="20" fill="white"/>
    <ellipse cx="820" cy="75" rx="30" ry="18" fill="white"/>
    <ellipse cx="785" cy="75" rx="25" ry="15" fill="white"/>
  </g>
  
  <!-- Garden background with trees -->
  <g>
    <!-- Tree trunks -->
    <rect x="80" y="400" width="25" height="120" fill="#8b4513"/>
    <rect x="1050" y="350" width="30" height="150" fill="#8b4513"/>
    <rect x="150" y="420" width="20" height="100" fill="#8b4513"/>
    
    <!-- Tree foliage -->
    <circle cx="92" cy="380" r="60" fill="#228b22"/>
    <circle cx="1065" cy="330" r="80" fill="#32cd32"/>
    <circle cx="160" cy="400" r="45" fill="#228b22"/>
    
    <!-- Additional foliage layers for depth -->
    <circle cx="110" cy="360" r="40" fill="#32cd32"/>
    <circle cx="75" cy="370" r="35" fill="#228b22"/>
    <circle cx="1040" cy="310" r="50" fill="#228b22"/>
    <circle cx="1085" cy="340" r="45" fill="#32cd32"/>
  </g>
  
  <!-- Garden flowers and plants -->
  <g>
    <!-- Flower bed -->
    <ellipse cx="300" cy="650" rx="150" ry="30" fill="#90ee90"/>
    <ellipse cx="900" cy="680" rx="120" ry="25" fill="#90ee90"/>
    
    <!-- Flowers -->
    <g transform="translate(250, 630)">
      <circle cx="0" cy="0" r="8" fill="#ff69b4"/>
      <circle cx="20" cy="-5" r="6" fill="#ff1493"/>
      <circle cx="40" cy="3" r="7" fill="#ff69b4"/>
      <circle cx="60" cy="-2" r="5" fill="#ff1493"/>
      <rect x="-2" y="0" width="2" height="15" fill="#228b22"/>
      <rect x="18" y="-5" width="2" height="18" fill="#228b22"/>
      <rect x="38" y="3" width="2" height="12" fill="#228b22"/>
      <rect x="58" y="-2" width="2" height="16" fill="#228b22"/>
    </g>
    
    <g transform="translate(850, 660)">
      <circle cx="0" cy="0" r="6" fill="#ffd700"/>
      <circle cx="25" cy="-3" r="7" fill="#ffff00"/>
      <circle cx="50" cy="2" r="5" fill="#ffd700"/>
      <rect x="-1" y="0" width="2" height="12" fill="#228b22"/>
      <rect x="24" y="-3" width="2" height="15" fill="#228b22"/>
      <rect x="49" y="2" width="2" height="10" fill="#228b22"/>
    </g>
  </g>
  
  <!-- Grass texture -->
  <g opacity="0.3">
    <path d="M 0 700 Q 50 680 100 700 Q 150 680 200 700 Q 250 680 300 700 Q 350 680 400 700 Q 450 680 500 700 Q 550 680 600 700 Q 650 680 700 700 Q 750 680 800 700 Q 850 680 900 700 Q 950 680 1000 700 Q 1050 680 1100 700 Q 1150 680 1200 700 L 1200 800 L 0 800 Z" fill="#228b22"/>
  </g>
  
  <!-- Grandmother figure -->
  <g transform="translate(200, 300)">
    <!-- Body -->
    <ellipse cx="0" cy="80" rx="35" ry="60" fill="#9370db"/>
    <!-- Arms -->
    <ellipse cx="-25" cy="60" rx="12" ry="35" fill="#fdbcbc" transform="rotate(-20)"/>
    <ellipse cx="25" cy="60" rx="12" ry="35" fill="#fdbcbc" transform="rotate(20)"/>
    <!-- Head -->
    <circle cx="0" cy="0" r="35" fill="#fdbcbc"/>
    <!-- Gray hair -->
    <path d="M -30 -15 Q 0 -40 30 -15 Q 25 -25 0 -30 Q -25 -25 -30 -15" fill="#d3d3d3"/>
    <circle cx="-15" cy="-20" r="8" fill="#d3d3d3"/>
    <circle cx="15" cy="-20" r="8" fill="#d3d3d3"/>
    <!-- Face -->
    <circle cx="-10" cy="-5" r="3" fill="#000"/>
    <circle cx="10" cy="-5" r="3" fill="#000"/>
    <!-- Laughing mouth -->
    <path d="M -12 8 Q 0 20 12 8" stroke="#000" stroke-width="3" fill="none"/>
    <!-- Laugh lines -->
    <path d="M -15 5 Q -10 10 -8 15" stroke="#000" stroke-width="1" fill="none"/>
    <path d="M 15 5 Q 10 10 8 15" stroke="#000" stroke-width="1" fill="none"/>
    <!-- Legs -->
    <rect x="-15" y="140" width="12" height="40" fill="#000080"/>
    <rect x="3" y="140" width="12" height="40" fill="#000080"/>
    <!-- Feet -->
    <ellipse cx="-9" cy="185" rx="8" ry="5" fill="#000"/>
    <ellipse cx="9" cy="185" rx="8" ry="5" fill="#000"/>
  </g>
  
  <!-- Granddaughter figure -->
  <g transform="translate(320, 380)">
    <!-- Body -->
    <ellipse cx="0" cy="50" rx="20" ry="35" fill="#ff69b4"/>
    <!-- Arms -->
    <ellipse cx="-15" cy="35" rx="8" ry="20" fill="#fdbcbc" transform="rotate(-15)"/>
    <ellipse cx="15" cy="35" rx="8" ry="20" fill="#fdbcbc" transform="rotate(15)"/>
    <!-- Head -->
    <circle cx="0" cy="0" r="22" fill="#fdbcbc"/>
    <!-- Brown hair with pigtails -->
    <path d="M -18 -10 Q 0 -25 18 -10 Q 15 -18 0 -22 Q -15 -18 -18 -10" fill="#8b4513"/>
    <circle cx="-20" cy="-8" r="6" fill="#8b4513"/>
    <circle cx="20" cy="-8" r="6" fill="#8b4513"/>
    <!-- Face -->
    <circle cx="-6" cy="-3" r="2" fill="#000"/>
    <circle cx="6" cy="-3" r="2" fill="#000"/>
    <!-- Laughing mouth -->
    <path d="M -8 5 Q 0 12 8 5" stroke="#000" stroke-width="2" fill="none"/>
    <!-- Rosy cheeks -->
    <circle cx="-12" cy="3" r="4" fill="#ffb6c1" opacity="0.6"/>
    <circle cx="12" cy="3" r="4" fill="#ffb6c1" opacity="0.6"/>
    <!-- Legs -->
    <rect x="-8" y="85" width="7" height="25" fill="#ff1493"/>
    <rect x="1" y="85" width="7" height="25" fill="#ff1493"/>
    <!-- Feet -->
    <ellipse cx="-4.5" cy="115" rx="5" ry="3" fill="#fff"/>
    <ellipse cx="4.5" cy="115" rx="5" ry="3" fill="#fff"/>
  </g>
  
  <!-- Interaction elements -->
  <!-- Grandmother's hand reaching toward granddaughter -->
  <g transform="translate(235, 360)">
    <circle cx="0" cy="0" r="8" fill="#fdbcbc"/>
    <ellipse cx="-3" cy="-8" rx="3" ry="8" fill="#fdbcbc"/>
  </g>
  
  <!-- Granddaughter's hand reaching toward grandmother -->
  <g transform="translate(305, 415)">
    <circle cx="0" cy="0" r="6" fill="#fdbcbc"/>
    <ellipse cx="3" cy="-6" rx="2" ry="6" fill="#fdbcbc"/>
  </g>
  
  <!-- Laughter sparkles -->
  <g opacity="0.7">
    <g transform="translate(180, 280)">
      <path d="M 0 0 L 3 8 L 11 5 L 3 3 Z" fill="#ffd700"/>
      <path d="M 20 10 L 22 16 L 28 14 L 22 12 Z" fill="#ffd700"/>
      <path d="M 35 5 L 37 11 L 43 9 L 37 7 Z" fill="#ffd700"/>
    </g>
    <g transform="translate(340, 360)">
      <path d="M 0 0 L 2 6 L 8 4 L 2 2 Z" fill="#ffd700"/>
      <path d="M 15 8 L 17 14 L 23 12 L 17 10 Z" fill="#ffd700"/>
    </g>
  </g>
  
  <!-- Butterflies -->
  <g transform="translate(500, 200)">
    <ellipse cx="-3" cy="-2" rx="4" ry="6" fill="#ff69b4" opacity="0.8"/>
    <ellipse cx="3" cy="-2" rx="4" ry="6" fill="#ff1493" opacity="0.8"/>
    <ellipse cx="-2" cy="2" rx="3" ry="4" fill="#ff69b4" opacity="0.8"/>
    <ellipse cx="2" cy="2" rx="3" ry="4" fill="#ff1493" opacity="0.8"/>
    <line x1="0" y1="-4" x2="0" y2="6" stroke="#000" stroke-width="1"/>
  </g>
  
  <g transform="translate(700, 250)">
    <ellipse cx="-2" cy="-1" rx="3" ry="4" fill="#87ceeb" opacity="0.8"/>
    <ellipse cx="2" cy="-1" rx="3" ry="4" fill="#4169e1" opacity="0.8"/>
    <ellipse cx="-1" cy="1" rx="2" ry="3" fill="#87ceeb" opacity="0.8"/>
    <ellipse cx="1" cy="1" rx="2" ry="3" fill="#4169e1" opacity="0.8"/>
    <line x1="0" y1="-3" x2="0" y2="4" stroke="#000" stroke-width="1"/>
  </g>
  
  <!-- Garden bench -->
  <g transform="translate(400, 500)">
    <rect x="0" y="0" width="120" height="8" fill="#8b4513"/>
    <rect x="0" y="8" width="8" height="30" fill="#8b4513"/>
    <rect x="112" y="8" width="8" height="30" fill="#8b4513"/>
    <rect x="0" y="-15" width="120" height="8" fill="#8b4513"/>
  </g>
  
  <!-- Soft light rays from sun -->
  <g opacity="0.2">
    <path d="M 1000 120 L 200 300 L 220 320 L 1020 140 Z" fill="#ffd700"/>
    <path d="M 1000 120 L 300 380 L 320 400 L 1020 140 Z" fill="#ffd700"/>
    <path d="M 1000 120 L 150 250 L 170 270 L 1020 140 Z" fill="#ffd700"/>
  </g>
</svg>